<svg aria-hidden="true" style="position:absolute;width:0;height:0;overflow:hidden" xmlns="http://www.w3.org/2000/svg"><defs>

<symbol id="icon-star-black" viewBox="0 0 35 32"><path d="M15.824 1.375c.48-1.472 2.563-1.472 3.043 0l2.802 8.599a1.6 1.6 0 0 0 1.521 1.104h9.057c1.551 0 2.195 1.986.939 2.896l-7.32 5.303a1.6 1.6 0 0 0-.583 1.791l2.798 8.587c.48 1.473-1.205 2.7-2.46 1.791l-7.337-5.316a1.599 1.599 0 0 0-1.877 0L9.07 31.446c-1.255.909-2.94-.318-2.46-1.791l2.798-8.587a1.599 1.599 0 0 0-.583-1.791l-7.32-5.303c-1.256-.91-.612-2.896.939-2.896h9.057a1.6 1.6 0 0 0 1.521-1.104l2.802-8.599z"/></symbol>

<symbol id="icon-css3" viewBox="0 0 32 32"><path fill="#1572b6" style="fill:var(--color1, #1572b6)" d="M2 0h28l-2.547 28.751L15.969 32l-11.42-3.251zm22.787 5.884L7.214 5.88l.284 3.496 13.5.003-.34 3.621h-8.853l.32 3.431h8.243l-.488 4.697L16 22.2l-3.941-1.08-.251-2.813h-3.48l.387 5.14 7.287 2.271 7.164-2.04z"/></symbol>

<symbol id="icon-html5" viewBox="0 0 32 32"><path fill="#e34f26" style="fill:var(--color2, #e34f26)" d="M2 0h28l-2.547 28.751L15.969 32 4.55 28.749zm9.375 13-.309-3.624 13.412.004.307-3.496L7.217 5.88l.931 10.68h12.168l-.435 4.568-3.88 1.072-3.94-1.08-.251-2.813H8.331l.44 5.561L16 25.801l7.172-1.924.992-10.876z"/></symbol>

<symbol id="icon-facebook" viewBox="0 0 32 32"><path fill="#1877f2" style="fill:var(--color3, #1877f2)" d="M31.997 15.999C31.997 7.163 24.834 0 15.998 0S-.001 7.163-.001 15.999c0 7.985 5.851 14.604 13.499 15.804v-11.18H9.436v-4.625h4.062v-3.525c0-4.01 2.389-6.225 6.043-6.225 1.75 0 3.581.313 3.581.313v3.937h-2.017c-1.987 0-2.607 1.233-2.607 2.498v3.001h4.437l-.709 4.625h-3.728v11.18c7.649-1.2 13.499-7.819 13.499-15.804z"/></symbol>

<symbol id="icon-telegram" viewBox="0 0 32 32"><path fill="#2ca5e0" style="fill:var(--color4, #2ca5e0)" d="m31.88 5.053-4.813 22.733c-.333 1.613-1.307 2-2.667 1.253l-7.333-5.427-3.547 3.427c-.4.4-.733.747-1.467.747-.96 0-.8-.36-1.12-1.267L8.4 18.266l-7.267-2.267c-1.573-.467-1.587-1.547.347-2.333L29.827 2.733c1.293-.573 2.533.32 2.053 2.32z"/></symbol>

<symbol id="icon-javascript" viewBox="0 0 32 32"><path fill="#f7df1e" style="fill:var(--color5, #f7df1e)" d="M0 0h32v32H0zm29.379 24.368c-.233-1.46-1.184-2.687-4.004-3.831-.981-.46-2.072-.78-2.396-1.52-.121-.44-.14-.68-.061-.94.2-.861 1.22-1.12 2.02-.88.52.16 1 .56 1.301 1.2 1.379-.901 1.379-.901 2.34-1.5-.36-.56-.539-.801-.781-1.04-.84-.94-1.959-1.42-3.779-1.379l-.94.119c-.901.22-1.76.7-2.28 1.34-1.52 1.721-1.081 4.721.759 5.961 1.82 1.36 4.481 1.659 4.821 2.94.32 1.56-1.16 2.06-2.621 1.88-1.081-.24-1.68-.781-2.34-1.781l-2.44 1.401c.28.64.6.919 1.08 1.479 2.32 2.341 8.12 2.221 9.161-1.339.039-.12.32-.94.099-2.2zm-11.978-9.66h-2.997c0 2.584-.012 5.152-.012 7.74 0 1.643.084 3.151-.184 3.615-.44.919-1.573.801-2.088.64-.528-.261-.796-.621-1.107-1.14-.084-.14-.147-.261-.169-.261l-2.433 1.5c.407.84 1 1.563 1.765 2.023 1.14.68 2.672.9 4.276.54 1.044-.301 1.944-.921 2.415-1.881.68-1.24.536-2.76.529-4.461.016-2.739 0-5.479 0-8.239z"/></symbol>

<symbol id="icon-visualstudiocode" viewBox="0 0 32 32"><path fill="#007acc" style="fill:var(--color6, #007acc)" d="M30.867 3.449 24.28.28a1.984 1.984 0 0 0-2.273.387L9.394 12.174 3.901 8.003a1.323 1.323 0 0 0-.805-.271c-.346 0-.661.132-.897.348L.437 9.682c-.269.245-.436.596-.436.987s.167.741.434.984l.001.001L5.2 16.001.436 20.348a1.33 1.33 0 0 0 0 1.971l.001.001 1.764 1.601a1.328 1.328 0 0 0 1.704.074l-.003.002 5.493-4.171 12.613 11.507a1.982 1.982 0 0 0 2.284.381l-.012.005 6.589-3.169A2.003 2.003 0 0 0 32 26.749V5.252c0-.789-.457-1.472-1.122-1.797l-.012-.005zm-6.862 19.815L14.434 16l9.571-7.264z"/></symbol>

<symbol id="icon-figma" viewBox="0 0 21 32"><path fill="#0acf83" style="fill:var(--color7, #0acf83)" d="M5.469 31.997c2.89 0 5.235-2.387 5.235-5.331v-5.331H5.469c-2.89 0-5.235 2.387-5.235 5.331s2.344 5.331 5.235 5.331z"/><path fill="#a259ff" style="fill:var(--color8, #a259ff)" d="M.235 15.998c0-2.943 2.344-5.331 5.235-5.331h5.235v10.668H5.47C2.58 21.328.235 18.941.235 15.998z"/><path fill="#f24e1e" style="fill:var(--color9, #f24e1e)" d="M.235 5.331C.235 2.388 2.579 0 5.47 0h5.235v10.668H5.47c-2.89 0-5.235-2.394-5.235-5.337z"/><path fill="#ff7262" style="fill:var(--color10, #ff7262)" d="M10.71 0h5.235c2.89 0 5.235 2.387 5.235 5.331s-2.344 5.331-5.235 5.331H10.71V.001z"/><path fill="#1abcfe" style="fill:var(--color11, #1abcfe)" d="M21.179 15.998c0 2.943-2.344 5.331-5.235 5.331s-5.235-2.387-5.235-5.331c0-2.943 2.344-5.331 5.235-5.331s5.235 2.387 5.235 5.331z"/></symbol>

<symbol id="icon-star" viewBox="0 0 34 32"><path fill="#e5e5e5" style="fill:var(--color12, #e5e5e5)" d="M15.365 1.375c.48-1.472 2.563-1.472 3.043 0l2.802 8.599a1.599 1.599 0 0 0 1.521 1.104h9.057c1.551 0 2.195 1.986.939 2.896l-7.32 5.303a1.6 1.6 0 0 0-.583 1.791l2.798 8.587c.48 1.473-1.205 2.7-2.46 1.791l-7.337-5.316a1.6 1.6 0 0 0-1.878 0L8.61 31.446c-1.255.909-2.94-.318-2.46-1.791l2.798-8.587a1.599 1.599 0 0 0-.583-1.791l-7.32-5.303c-1.256-.91-.612-2.896.939-2.896h9.057a1.6 1.6 0 0 0 1.521-1.104l2.802-8.599z"/></symbol>

<symbol id="icon-mail" viewBox="0 0 32 32"><path d="M28 5H4a4 4 0 0 0-4 4v13a4 4 0 0 0 4 4h24a4 4 0 0 0 4-4V9a4 4 0 0 0-4-4zM2 10.25l6.999 5.25L2 20.75v-10.5zM30 22c0 1.104-.898 2-2 2H4c-1.103 0-2-.896-2-2l7.832-5.875 4.368 3.277a3 3 0 0 0 3.599 0l4.369-3.277L30 22zm0-1.25-7-5.25 7-5.25v10.5zm-12.801-2.148c-.349.262-.763.4-1.199.4s-.851-.139-1.2-.4L2 9c0-1.103.897-2 2-2h24c1.102 0 2 .897 2 2l-12.801 9.602z"/></symbol>

<symbol id="icon-phone" viewBox="0 0 32 32"><path d="M22 20c-2 2-2 4-4 4s-4-2-6-4-4-4-4-6 2-2 4-4-4-8-6-8-6 6-6 6c0 4 4.109 12.109 8 16s12 8 16 8c0 0 6-4 6-6s-6-8-8-6z"/></symbol>

<symbol id="icon-menu" viewBox="0 0 32 32"><path d="M6.4 11.734V9.6h19.2v2.134H6.4zm0 5.332h19.2v-2.133H6.4v2.133zm0 5.334h19.2v-2.134H6.4V22.4z"/></symbol>

<symbol id="icon-close_menu" viewBox="0 0 32 32"><path d="M23.733 10.304L22.229 8.8l-5.963 5.963L10.303 8.8l-1.504 1.504 5.963 5.963-5.963 5.963 1.504 1.504 5.963-5.963 5.963 5.963 1.504-1.504-5.963-5.963 5.963-5.963z"/></symbol>

</defs></svg>